<?xml version="1.0" encoding="UTF-8" standalone="no"?>
<!DOCTYPE svg PUBLIC "-//W3C//DTD SVG 20010904//EN" "http://www.w3.org/TR/2001/REC-SVG-20010904/DTD/svg10.dtd">

<svg xmlns="http://www.w3.org/2000/svg"
  width="1.66667in" height="1.66667in"
  viewBox="0 0 500 500">
  <path id="Selection"
    fill="#323130" stroke="#323130" stroke-width="1"
    d="M 479.00,0.00 Z
           M 189.00,97.00
           C 189.00,97.00 261.00,97.00 261.00,97.00
             261.00,97.00 261.00,236.00 261.00,236.00
             261.00,236.00 292.25,199.00 292.25,199.00
             292.25,199.00 348.92,131.00 348.92,131.00
             348.92,131.00 367.25,109.00 367.25,109.00
             373.92,100.99 374.41,97.02 385.00,97.00
             385.00,97.00 459.00,97.00 459.00,97.00
             459.00,97.00 430.08,133.00 430.08,133.00
             430.08,133.00 372.41,202.00 372.41,202.00
             372.41,202.00 349.92,229.00 349.92,229.00
             349.92,229.00 342.30,240.00 342.30,240.00
             342.30,240.00 350.58,254.00 350.58,254.00
             350.58,254.00 373.66,287.00 373.66,287.00
             373.66,287.00 433.72,373.00 433.72,373.00
             433.72,373.00 467.00,421.00 467.00,421.00
             467.00,421.00 394.00,421.00 394.00,421.00
             394.00,421.00 386.52,420.01 386.52,420.01
             386.52,420.01 379.58,411.00 379.58,411.00
             379.58,411.00 365.00,390.00 365.00,390.00
             365.00,390.00 319.28,324.00 319.28,324.00
             319.28,324.00 295.00,288.00 295.00,288.00
             295.00,288.00 280.85,303.00 280.85,303.00
             280.85,303.00 262.99,324.00 262.99,324.00
             262.99,324.00 259.00,331.00 259.00,331.00
             259.00,331.00 258.00,328.00 258.00,328.00
             254.57,353.45 242.94,380.21 224.00,397.91
             215.88,405.50 202.27,414.80 192.00,419.13
             178.27,424.90 156.91,428.98 142.00,429.00
             111.82,429.05 85.33,421.69 62.00,401.70
             34.57,378.19 22.00,341.34 22.00,306.00
             22.00,306.00 38.00,305.00 38.00,305.00
             38.00,305.00 52.00,304.00 52.00,304.00
             52.00,304.00 93.00,302.00 93.00,302.00
             93.00,323.48 96.43,346.17 114.00,360.67
             130.74,374.48 160.70,371.57 174.68,355.00
             184.73,343.07 188.98,325.34 189.00,310.00
             189.00,310.00 189.00,97.00 189.00,97.00 Z" />
</svg>