<svg xmlns="http://www.w3.org/2000/svg" id="Mark_s_List" data-name="Mark's List" viewBox="0 0 100 93.9"><defs><style>.cls-1{fill:#2c3581}</style></defs><g id="Microsoft_Dynamics_CRM" data-name="Microsoft Dynamics CRM"><g id="SVG_Icon" data-name="SVG Icon"><path d="M425.1 19.3c-5.9 14.3-14.7 27.6-23.7 36.8v22.3l-.8.5h-1.4C368.2 81 350 96.4 350 96.4c34.7-21.5 74-11.5 74.2-11.5l3-.5V20z" className="cls-1" transform="translate(-350 -3)"/><path d="M448.4 34.8S445 39 435 48.1c-2.4 2.2-3.7 3.4-5.9 5.4v33.2l-2 .5c-.1 0-8.7-2.8-23.7-3.2s-36.6 3.6-53.3 12.6h.7S395.7 79 448 97l2-.8V35.7z" className="cls-1" transform="translate(-350 -3)"/><path d="M399.5 3.7l-2.4-.7v.3c-.3 2-2.8 17.8-14.3 39.9A192.8 192.8 0 0 1 350 89v7.5s16.8-15.8 46.8-19h1.1l1.7-.5V3.7h-.1z" className="cls-1" transform="translate(-350 -3)"/></g></g></svg>