<?xml version="1.0" encoding="utf-8" standalone="yes"?><!-- Uploaded to: SVG Repo, www.svgrepo.com, Generator: SVG Repo Mixer Tools --><svg xmlns="http://www.w3.org/2000/svg" width="800px" height="800px" viewBox="0 0 1024 1024" class="icon" version="1.1" style="zoom: 1;"><path d="M464.8,409.7 C431.9,365 378.9,336 319.2,336 c-99.8,0 -180.7,80.9 -180.7,180.7 s80.9,180.7 180.7,180.7 h297.3 c149.3,0 270.3,-121 270.3,-270.3 s-121,-270.3 -270.3,-270.3 c-118.7,0 -219.6,76.5 -255.9,183 " fill="transparent"></path><path d="M823.5,766.5 c0,-3.2 0.5,-6.3 1.5,-9.2 H631 V417.4 c0,-5.5 -4.5,-10 -10,-10 s-10,4.5 -10,10 v359.9 h214.6 c-1.3,-3.3 -2.1,-7 -2.1,-10.8 " fill="#323130"></path><path d="M852.200012,737.900024 c-12.6,0 -23.3,8.1 -27.1,19.4 c-1,2.9 -1.5,6 -1.5,9.2 c0,3.8 0.7,7.4 2.1,10.8 c4.3,10.5 14.5,17.9 26.6,17.9 c15.8,0 28.7,-12.8 28.7,-28.7 c-0.1,-15.8 -13,-28.6 -28.8,-28.6 M700,257.700012 c2.1,-5.1 -0.3,-11 -5.4,-13.1 c-78,-32.3 -135.3,-15.6 -169.6,4.1 c-37.2,21.3 -55.7,50.2 -56.4,51.5 c-2.9,4.7 -1.5,10.8 3.1,13.8 c1.7,1 3.5,1.5 5.3,1.5 c3.3,0 6.6,-1.6 8.5,-4.6 c0.2,-0.3 17.1,-26.4 50.2,-45.2 c44.1,-24.9 94.9,-25.8 151.2,-2.5 c5.1,2 11,-0.4 13.1,-5.5 " fill="#323130"></path><path d="M852.2,819.8 c-12.4,0 -22.9,7.8 -26.9,18.8 H534.5 V717.3 H611 v-40 h-76.5 V537.9 c0,-5.5 -4.5,-10 -10,-10 s-10,4.5 -10,10 v139.4 h-66.9 V537.9 c0,-5.5 -4.5,-10 -10,-10 s-10,4.5 -10,10 v139.4 H319.2 c-88.6,0 -160.7,-72.1 -160.7,-160.7 s72.1,-160.7 160.7,-160.7 c50.9,0 99.3,24.5 129.5,65.6 c6.5,8.9 19.1,10.8 28,4.3 c8.9,-6.5 10.8,-19.1 4.3,-28 c-18.3,-24.8 -42.4,-45.4 -69.7,-59.5 c-7.9,-4.1 -16.1,-7.7 -24.5,-10.7 c39.3,-91 129.3,-150.8 229.8,-150.8 c138,0 250.3,112.3 250.3,250.3 c0,133.1 -104.4,242.2 -235.7,249.8 V717 c72.1,-3.5 139.3,-33.3 190.7,-84.7 c54.8,-54.8 85,-127.7 85,-205.2 s-30.2,-150.4 -85,-205.2 c-54.8,-54.8 -127.7,-85 -205.2,-85 c-118.8,0 -224.9,72.1 -269.1,181.2 c-9.3,-1.3 -18.8,-2 -28.2,-2 c-110.7,0 -200.7,90 -200.7,200.7 s90,200.7 200.7,200.7 h108.4 v73.9 H250.9 c-4.3,-19.6 -21.8,-34.4 -42.7,-34.4 c-24.1,0 -43.7,19.6 -43.7,43.7 s19.6,43.7 43.7,43.7 c20.4,0 37.6,-14.1 42.4,-33 h197 v-93.9 h66.9 v141.3 h310.9 c4.1,10.8 14.6,18.5 26.8,18.5 c15.8,0 28.7,-12.8 28.7,-28.7 c0,-16 -12.9,-28.8 -28.7,-28.8 m-622.5,-9.3 c-3.8,8.1 -12,13.7 -21.5,13.7 c-13.1,0 -23.7,-10.6 -23.7,-23.7 s10.6,-23.7 23.7,-23.7 c9.9,0 18.5,6.2 22,14.9 c1.1,2.7 1.7,5.7 1.7,8.8 c0,3.6 -0.8,7 -2.2,10 " visibility="visible" fill="#9a9f78"></path></svg>